<?xml version="1.0" encoding="UTF-8" standalone="no"?>
<!-- Created with Inkscape (http://www.inkscape.org/) -->

<svg
   width="40.46368mm"
   height="46.254074mm"
   viewBox="0 0 40.46368 46.254074"
   version="1.1"
   id="svg1"
   xml:space="preserve"
   xmlns:inkscape="http://www.inkscape.org/namespaces/inkscape"
   xmlns:sodipodi="http://sodipodi.sourceforge.net/DTD/sodipodi-0.dtd"
   xmlns="http://www.w3.org/2000/svg"
   xmlns:svg="http://www.w3.org/2000/svg"><sodipodi:namedview
     id="namedview1"
     pagecolor="#ffffff"
     bordercolor="#000000"
     borderopacity="0.25"
     inkscape:showpageshadow="2"
     inkscape:pageopacity="0.0"
     inkscape:pagecheckerboard="0"
     inkscape:deskcolor="#d1d1d1"
     inkscape:document-units="mm"
     inkscape:zoom="0.86554322"
     inkscape:cx="1600.7288"
     inkscape:cy="-45.63608"
     inkscape:window-width="958"
     inkscape:window-height="1041"
     inkscape:window-x="953"
     inkscape:window-y="0"
     inkscape:window-maximized="0"
     inkscape:current-layer="layer1"
     showgrid="false"><inkscape:grid
       id="grid98"
       units="mm"
       originx="-2101.1991"
       originy="504.60959"
       spacingx="0.99999998"
       spacingy="1"
       empcolor="#0099e5"
       empopacity="0.30196078"
       color="#0099e5"
       opacity="0.14901961"
       empspacing="5"
       dotted="false"
       gridanglex="30"
       gridanglez="30"
       visible="false" /></sodipodi:namedview><defs
     id="defs1" /><g
     inkscape:label="Camada 1"
     inkscape:groupmode="layer"
     id="layer1"
     transform="translate(-555.94227,133.51129)"><g
       id="g1271"
       transform="matrix(0.13295491,0,0,0.16537151,473.29053,-82.550091)"><path
         id="path1246"
         style="opacity:1;fill:#ffffff;fill-opacity:1;stroke:none;stroke-width:8.5006;stroke-linecap:round;stroke-linejoin:round;stroke-dasharray:none;stroke-opacity:1;paint-order:stroke fill markers"
         d="m 736.48131,-160.81676 a 114.82883,19.832885 0 0 0 -114.82891,19.83265 114.82883,19.832885 0 0 0 24.09982,12.0982 114.82883,19.832885 0 0 1 -2.99153,-4.42073 114.82883,19.832885 0 0 1 114.82891,-19.83303 114.82883,19.832885 0 0 1 90.74372,7.68704 114.82883,19.832885 0 0 0 -111.85201,-15.36413 z" /><path
         id="path1247"
         style="opacity:1;fill:#ffffff;fill-opacity:1;stroke:none;stroke-width:8.5006;stroke-linecap:round;stroke-linejoin:round;stroke-dasharray:none;stroke-opacity:1;paint-order:stroke fill markers"
         d="m 758.8343,-111.6121 a 114.82883,19.832885 0 0 0 114.82891,-19.83265 114.82883,19.832885 0 0 0 -24.09982,-12.09821 114.82883,19.832885 0 0 1 2.99153,4.42073 114.82883,19.832885 0 0 1 -114.8289,19.83303 114.82883,19.832885 0 0 1 -90.74373,-7.68703 114.82883,19.832885 0 0 0 111.85201,15.36413 z" /><path
         id="path1248"
         style="opacity:1;fill:#ffffff;fill-opacity:1;stroke:none;stroke-width:8.55648;stroke-linecap:round;stroke-linejoin:round;stroke-dasharray:none;stroke-opacity:1;paint-order:stroke fill markers"
         d="m 742.18928,-85.427286 a 115.73019,19.937963 6.1629313 0 0 118.88816,-6.911952 115.73019,19.937963 6.1629313 0 0 -21.77716,-14.646472 115.73019,19.937963 6.1629313 0 1 2.13333,4.70771 115.73019,19.937963 6.1629313 0 1 -118.88821,6.912322 115.73019,19.937963 6.1629313 0 1 -89.39096,-17.662772 115.73019,19.937963 6.1629313 0 0 109.03484,27.601164 z" /><path
         id="path1249"
         style="opacity:1;fill:#ffffff;fill-opacity:1;stroke:none;stroke-width:7.28543;stroke-linecap:round;stroke-linejoin:round;stroke-dasharray:none;stroke-opacity:1;paint-order:stroke fill markers"
         d="m 755.12887,-59.169572 a 16.617862,100.66363 88.59951 0 1 -101.42628,-14.078609 16.617862,100.66363 88.59951 0 1 20.63515,-10.657941 16.617862,100.66363 88.59951 0 0 -2.44445,3.766624 16.617862,100.66363 88.59951 0 0 101.42628,14.078923 16.617862,100.66363 88.59951 0 0 79.21593,-8.430223 16.617862,100.66363 88.59951 0 1 -97.40663,15.321226 z" /><path
         id="path1250"
         style="opacity:1;fill:#ffffff;fill-opacity:1;stroke:#ffffff;stroke-width:8.29646;stroke-linecap:round;stroke-linejoin:round;stroke-dasharray:none;stroke-opacity:1;paint-order:stroke fill markers"
         d="m 832.73872,-53.497391 a 80.651084,18.09018 0 0 1 -79.66607,15.424002 80.651084,18.09018 0 0 1 -79.61336,-15.359944 80.651084,18.09018 0 0 0 -1.03751,2.73081 80.651084,18.09018 0 0 0 80.65087,18.090348 80.651084,18.09018 0 0 0 80.65088,-18.090348 80.651084,18.09018 0 0 0 -0.98481,-2.794868 z" /><path
         style="opacity:1;fill:#ffffff;fill-opacity:1;stroke:none;stroke-width:10.3901;stroke-linecap:round;stroke-linejoin:round;stroke-dasharray:none;stroke-opacity:1;paint-order:stroke fill markers"
         d="m 707.77524,-278.02673 c 0,0 -24.36737,31.0332 0.90883,59.97964 25.2762,28.94643 -15.79611,53.26901 -15.79611,53.26901 0,0 58.70604,-14.91996 30.54581,-54.83188 -28.16019,-39.91192 -15.65853,-58.41677 -15.65853,-58.41677 z"
         id="path1251"
         sodipodi:nodetypes="cscsc" /><path
         style="opacity:1;fill:#ffffff;fill-opacity:1;stroke:none;stroke-width:11.603;stroke-linecap:round;stroke-linejoin:round;stroke-dasharray:none;stroke-opacity:1;paint-order:stroke fill markers"
         d="m 744.08873,-308.16189 c 0,0 -24.36737,38.7012 0.90883,74.80003 25.2762,36.09882 -15.79611,66.43127 -15.79611,66.43127 0,0 58.70604,-18.60654 30.54581,-68.3803 -28.16019,-49.77378 -15.65853,-72.851 -15.65853,-72.851 z"
         id="path1252"
         sodipodi:nodetypes="cscsc" /><path
         style="opacity:1;fill:#ffffff;fill-opacity:1;stroke:none;stroke-width:10.3901;stroke-linecap:round;stroke-linejoin:round;stroke-dasharray:none;stroke-opacity:1;paint-order:stroke fill markers"
         d="m 776.94379,-278.02673 c 0,0 -24.36737,31.0332 0.90883,59.97964 25.2762,28.94643 -15.79611,53.26901 -15.79611,53.26901 0,0 58.70604,-14.91996 30.54581,-54.83188 -28.16019,-39.91192 -15.65853,-58.41677 -15.65853,-58.41677 z"
         id="path1253"
         sodipodi:nodetypes="cscsc" /><path
         id="path1254"
         style="opacity:1;fill:#ffffff;fill-opacity:1;stroke:none;stroke-width:8.88363;stroke-linecap:round;stroke-linejoin:round;stroke-dasharray:none;stroke-opacity:1;paint-order:stroke fill markers"
         d="m 885.91025,-148.71232 a 40.083738,42.365729 0 0 0 -8.1204,0.98665 40.083738,42.365729 0 0 1 31.53569,41.37923 40.083738,42.365729 0 0 1 -31.74965,41.329496 40.083738,42.365729 0 0 0 8.33436,1.035963 40.083738,42.365729 0 0 0 40.08356,-42.365459 40.083738,42.365729 0 0 0 -40.08356,-42.36588 z" /></g></g></svg>
