<?xml version="1.0" encoding="UTF-8" standalone="no"?>
<!-- Created with Inkscape (http://www.inkscape.org/) -->

<svg
   width="40.023785mm"
   height="40.023804mm"
   viewBox="0 0 40.023785 40.023804"
   version="1.1"
   id="svg1"
   xml:space="preserve"
   xmlns:inkscape="http://www.inkscape.org/namespaces/inkscape"
   xmlns:sodipodi="http://sodipodi.sourceforge.net/DTD/sodipodi-0.dtd"
   xmlns="http://www.w3.org/2000/svg"
   xmlns:svg="http://www.w3.org/2000/svg"><sodipodi:namedview
     id="namedview1"
     pagecolor="#ffffff"
     bordercolor="#000000"
     borderopacity="0.25"
     inkscape:showpageshadow="2"
     inkscape:pageopacity="0.0"
     inkscape:pagecheckerboard="0"
     inkscape:deskcolor="#d1d1d1"
     inkscape:document-units="mm"
     inkscape:zoom="0.86554322"
     inkscape:cx="1600.7288"
     inkscape:cy="-45.63608"
     inkscape:window-width="958"
     inkscape:window-height="1041"
     inkscape:window-x="953"
     inkscape:window-y="0"
     inkscape:window-maximized="0"
     inkscape:current-layer="layer1"
     showgrid="false"><inkscape:grid
       id="grid98"
       units="mm"
       originx="-2285.5321"
       originy="468.57622"
       spacingx="0.99999998"
       spacingy="1"
       empcolor="#0099e5"
       empopacity="0.30196078"
       color="#0099e5"
       opacity="0.14901961"
       empspacing="5"
       dotted="false"
       gridanglex="30"
       gridanglez="30"
       visible="false" /></sodipodi:namedview><defs
     id="defs1" /><g
     inkscape:label="Camada 1"
     inkscape:groupmode="layer"
     id="layer1"
     transform="translate(-604.7137,123.97746)"><path
       id="rect1264"
       style="opacity:1;fill:#ffffff;fill-opacity:1;stroke:none;stroke-width:3.61691;stroke-linecap:round;stroke-linejoin:round;stroke-dasharray:none;stroke-opacity:1;paint-order:stroke fill markers"
       d="m 613.26669,-123.97745 c -4.73833,0 -8.55299,3.81454 -8.55299,8.55284 v 22.917979 c 0,4.738306 3.81466,8.552982 8.55299,8.552982 h 22.91798 c 4.73827,0 8.55281,-3.814676 8.55281,-8.552982 v -22.917979 c 0,-4.7383 -3.81454,-8.55284 -8.55281,-8.55284 z m 24.35776,15.76554 c 0.25083,0 0.52081,0.0149 0.80966,0.0448 0.29644,0.0299 0.59279,0.0748 0.88923,0.13462 0.30403,0.0498 0.60053,0.10961 0.88938,0.17938 0.29646,0.0698 0.57004,0.14457 0.82091,0.22431 v 2.39201 c -0.58532,-0.21928 -1.17063,-0.38375 -1.75589,-0.49339 -0.58532,-0.1196 -1.15149,-0.17938 -1.69879,-0.17938 -1.16301,0 -2.01827,0.25415 -2.56557,0.76246 -0.54728,0.50831 -0.82089,1.19115 -0.82089,2.0483 0,0.52825 0.1102,0.98173 0.33063,1.36047 0.22807,0.37874 0.52456,0.71761 0.88941,1.01662 0.36488,0.29901 0.7791,0.57299 1.24278,0.822161 0.47127,0.239206 0.95016,0.488401 1.43664,0.747541 0.48649,0.259141 0.96161,0.543183 1.42526,0.852157 0.4713,0.308974 0.88943,0.677877 1.25428,1.106452 0.36487,0.41861 0.65746,0.911898 0.8779,1.48001 0.22803,0.568114 0.34199,1.240894 0.34199,2.018312 0,0.926921 -0.14441,1.739242 -0.43326,2.436927 -0.28885,0.697684 -0.69163,1.280786 -1.2085,1.749231 -0.51691,0.458477 -1.14015,0.802304 -1.86988,1.031543 -0.72213,0.229239 -1.52029,0.343848 -2.39443,0.343848 -0.39527,0 -0.79065,-0.01998 -1.18592,-0.05984 -0.38768,-0.03987 -0.76392,-0.08974 -1.12877,-0.149536 -0.35728,-0.0598 -0.69553,-0.129502 -1.01477,-0.209237 -0.31927,-0.07973 -0.60806,-0.164452 -0.86652,-0.254155 v -2.571538 c 0.57011,0.279074 1.20862,0.498376 1.91554,0.657846 0.71451,0.15947 1.52398,0.239228 2.42854,0.239228 0.65372,0 1.20873,-0.06474 1.66481,-0.194309 0.46368,-0.139539 0.83992,-0.338863 1.12877,-0.598003 0.29644,-0.269106 0.50926,-0.593102 0.63848,-0.971844 0.13682,-0.378742 0.20526,-0.812243 0.20526,-1.300621 0,-0.528246 -0.1141,-0.976767 -0.34213,-1.34554 -0.22041,-0.378745 -0.513,-0.712654 -0.87788,-1.001694 -0.36484,-0.299008 -0.783,-0.568177 -1.25427,-0.807381 -0.46368,-0.249174 -0.93881,-0.503325 -1.42529,-0.762465 -0.48648,-0.25914 -0.96537,-0.538223 -1.43665,-0.837231 -0.46368,-0.308974 -0.87793,-0.667675 -1.24278,-1.076319 -0.36487,-0.418612 -0.66137,-0.907083 -0.8894,-1.465233 -0.22044,-0.55814 -0.33063,-1.22086 -0.33063,-1.98831 0,-0.66779 0.10643,-1.32569 0.31927,-1.97354 0.21282,-0.64785 0.54353,-1.22089 0.99203,-1.71924 0.44847,-0.50831 1.02231,-0.91702 1.72165,-1.226 0.70692,-0.30897 1.54683,-0.46339 2.5198,-0.46339 z m -16.64429,0.10079 h 9.87008 v 13.690654 c 0,0.844352 -0.12125,1.648539 -0.36388,2.412478 -0.24261,0.753886 -0.61148,1.412198 -1.10646,1.975099 -0.49495,0.562901 -1.11605,1.010277 -1.86336,1.341987 -0.7473,0.331709 -1.62561,0.497506 -2.63494,0.497506 -0.37849,0 -0.76667,-0.03009 -1.16458,-0.0904 -0.38823,-0.05026 -0.7668,-0.120619 -1.13561,-0.211085 -0.35907,-0.100518 -0.69875,-0.216159 -1.01904,-0.346832 -0.32026,-0.140726 -0.59676,-0.291476 -0.82968,-0.452305 v -2.6989 c 0.60171,0.452333 1.2664,0.809144 1.99429,1.070493 0.73759,0.261346 1.4656,0.392033 2.18375,0.392033 1.05788,0 1.87301,-0.331733 2.44562,-0.995155 0.5726,-0.67347 0.85897,-1.638439 0.85897,-2.894915 v -11.368588 h -7.23516 z" /></g></svg>
