<?xml version="1.0" encoding="UTF-8" standalone="no"?>
<!-- Created with Inkscape (http://www.inkscape.org/) -->

<svg
   width="46.787193mm"
   height="46.349941mm"
   viewBox="0 0 46.787193 46.349941"
   version="1.1"
   id="svg1"
   xml:space="preserve"
   xmlns:inkscape="http://www.inkscape.org/namespaces/inkscape"
   xmlns:sodipodi="http://sodipodi.sourceforge.net/DTD/sodipodi-0.dtd"
   xmlns="http://www.w3.org/2000/svg"
   xmlns:svg="http://www.w3.org/2000/svg"><sodipodi:namedview
     id="namedview1"
     pagecolor="#ffffff"
     bordercolor="#000000"
     borderopacity="0.25"
     inkscape:showpageshadow="2"
     inkscape:pageopacity="0.0"
     inkscape:pagecheckerboard="0"
     inkscape:deskcolor="#d1d1d1"
     inkscape:document-units="mm"
     inkscape:zoom="0.86554322"
     inkscape:cx="1600.7288"
     inkscape:cy="-45.63608"
     inkscape:window-width="958"
     inkscape:window-height="1041"
     inkscape:window-x="953"
     inkscape:window-y="0"
     inkscape:window-maximized="0"
     inkscape:current-layer="layer1"
     showgrid="false"><inkscape:grid
       id="grid98"
       units="mm"
       originx="-2887.0399"
       originy="458.34885"
       spacingx="0.99999998"
       spacingy="1"
       empcolor="#0099e5"
       empopacity="0.30196078"
       color="#0099e5"
       opacity="0.14901961"
       empspacing="5"
       dotted="false"
       gridanglex="30"
       gridanglez="30"
       visible="false" /></sodipodi:namedview><defs
     id="defs1" /><g
     inkscape:label="Camada 1"
     inkscape:groupmode="layer"
     id="layer1"
     transform="translate(-763.86263,121.27147)"><g
       id="g1285"
       transform="matrix(0.25286841,0,0,0.25286841,505.00257,-131.1099)"><path
         id="path1271"
         style="opacity:1;fill:#ffffff;fill-opacity:1;stroke:none;stroke-width:10;stroke-linecap:round;stroke-linejoin:round;stroke-dasharray:none;stroke-opacity:1;paint-order:stroke fill markers"
         d="m 1100.6444,68.303841 a 76.95002,76.95002 0 0 0 -76.9498,76.950339 76.95002,76.95002 0 0 0 76.9498,76.94983 76.95002,76.95002 0 0 0 76.9504,-76.94983 76.95002,76.95002 0 0 0 -76.9504,-76.950339 z m -33.2873,27.667562 a 27.235119,27.235119 0 0 1 27.235,27.235027 27.235119,27.235119 0 0 1 -27.235,27.23503 27.235119,27.235119 0 0 1 -27.2351,-27.23503 27.235119,27.235119 0 0 1 27.2351,-27.235027 z" /><circle
         style="opacity:1;fill:#ffffff;fill-opacity:1;stroke:none;stroke-width:10;stroke-linecap:round;stroke-linejoin:round;stroke-dasharray:none;stroke-opacity:1;paint-order:stroke fill markers"
         id="path1272"
         cx="1181.4854"
         cy="66.142433"
         r="27.235119" /></g></g></svg>
