<?xml version="1.0" encoding="UTF-8" standalone="no"?>
<!-- Created with Inkscape (http://www.inkscape.org/) -->

<svg
   width="44.765484mm"
   height="44.765438mm"
   viewBox="0 0 44.765484 44.765438"
   version="1.1"
   id="svg1"
   xml:space="preserve"
   xmlns:inkscape="http://www.inkscape.org/namespaces/inkscape"
   xmlns:sodipodi="http://sodipodi.sourceforge.net/DTD/sodipodi-0.dtd"
   xmlns="http://www.w3.org/2000/svg"
   xmlns:svg="http://www.w3.org/2000/svg"><sodipodi:namedview
     id="namedview1"
     pagecolor="#ffffff"
     bordercolor="#000000"
     borderopacity="0.25"
     inkscape:showpageshadow="2"
     inkscape:pageopacity="0.0"
     inkscape:pagecheckerboard="0"
     inkscape:deskcolor="#d1d1d1"
     inkscape:document-units="mm"
     inkscape:zoom="0.86554322"
     inkscape:cx="1600.7288"
     inkscape:cy="-45.63608"
     inkscape:window-width="958"
     inkscape:window-height="1041"
     inkscape:window-x="953"
     inkscape:window-y="0"
     inkscape:window-maximized="0"
     inkscape:current-layer="layer1"
     showgrid="false"><inkscape:grid
       id="grid98"
       units="mm"
       originx="-2472.4591"
       originy="480.79608"
       spacingx="0.99999998"
       spacingy="1"
       empcolor="#0099e5"
       empopacity="0.30196078"
       color="#0099e5"
       opacity="0.14901961"
       empspacing="5"
       dotted="false"
       gridanglex="30"
       gridanglez="30"
       visible="false" /></sodipodi:namedview><defs
     id="defs1" /><g
     inkscape:label="Camada 1"
     inkscape:groupmode="layer"
     id="layer1"
     transform="translate(-654.17146,127.21063)"><path
       id="rect1254"
       style="opacity:1;fill:#ffffff;fill-opacity:1;stroke:none;stroke-width:1.82953;stroke-linecap:round;stroke-linejoin:round;stroke-dasharray:none;stroke-opacity:1;paint-order:stroke fill markers"
       d="m 670.02168,-127.21063 c -2.99728,0 -5.41025,2.41297 -5.41025,5.41025 v 3.64559 h 11.80763 c 0.36166,0 0.65283,0.29118 0.65283,0.65283 0,0.36165 -0.29117,0.65282 -0.65283,0.65282 h -11.80763 v 0.0785 h -5.02972 c -2.99728,0 -5.41024,2.41298 -5.41024,5.41025 v 13.064962 c 0,2.997273 2.41296,5.410343 5.41024,5.410343 h 3.64164 c -0.0314,-0.08713 -0.0508,-0.180574 -0.0508,-0.279376 v -11.718669 -6.3e-4 c -0.009,-0.0437 -0.0146,-0.0889 -0.0146,-0.13548 v -0.0135 c 0,-0.35792 0.28817,-0.64601 0.6461,-0.64601 h 24.505 v -11.52941 c 0,-0.20517 0.0724,-0.38991 0.18786,-0.53332 v -4.05866 c 0,-2.99727 -2.41304,-5.41025 -5.41033,-5.41025 z m 0.12612,3.47995 a 1.4236401,1.4236401 0 0 1 1.42363,1.42364 1.4236401,1.4236401 0 0 1 -1.42363,1.42363 1.4236401,1.4236401 0 0 1 -1.42362,-1.42363 1.4236401,1.4236401 0 0 1 1.42362,-1.42364 z m 19.69066,6.96001 v 11.62913 c 0,0.45373 -0.34104,0.81903 -0.76467,0.81903 -0.0932,0 -0.18191,-0.0186 -0.26433,-0.051 h -24.10765 v 11.208979 c 0,0.134021 -0.0346,0.258154 -0.0904,0.368722 v 4.940368 c 0,2.997278 2.41297,5.41025 5.41025,5.41025 h 13.06496 c 2.9973,0 5.41034,-2.412972 5.41034,-5.41025 v -3.725108 c -0.0357,0.006 -0.0723,0.0098 -0.10976,0.0098 h -12.04899 c -0.36166,0 -0.65283,-0.291076 -0.65283,-0.652728 0,-0.361653 0.29117,-0.652823 0.65283,-0.652823 h 12.04899 c 0.0375,0 0.0741,0.0038 0.10976,0.0098 v -0.01872 h 5.02972 c 2.9973,0 5.41026,-2.413071 5.41026,-5.410344 V -111.3605 c 0,-2.99727 -2.41296,-5.41024 -5.41026,-5.41024 z m -5.74351,27.99035 a 1.4236401,1.4236401 0 0 1 1.42372,1.423635 1.4236401,1.4236401 0 0 1 -1.42372,1.423636 1.4236401,1.4236401 0 0 1 -1.42365,-1.423636 1.4236401,1.4236401 0 0 1 1.42365,-1.423635 z" /></g></svg>
